<?xml version="1.0" encoding="utf-8"?>
<!-- Generator: Adobe Illustrator 21.1.0, SVG Export Plug-In . SVG Version: 6.00 Build 0)  -->
<svg version="1.1" id="Layer_1" xmlns="http://www.w3.org/2000/svg" xmlns:xlink="http://www.w3.org/1999/xlink" x="0px" y="0px"
	 viewBox="0 0 200 29" style="enable-background:new 0 0 200 29;" xml:space="preserve">
<style type="text/css">
	.st0{fill:#FFFFFF;}
</style>
<title>alar-auto_logo</title>
<desc>Created with Sketch.</desc>
<g id="Welcome">
	<g id="Desktop-HD" transform="translate(-310.000000, -16.000000)">
		<g id="alar-auto_logo" transform="translate(310.000000, 16.000000)">
			<g id="auto" transform="translate(124.000000, 0.000000)">
				<path id="Fill-11" class="st0" d="M12.2,20.5c0,0.7-0.2,1.3-0.5,1.7c-0.3,0.5-0.7,0.8-1.1,1c-0.5,0.2-0.9,0.3-1.4,0.3
					c-0.4,0-0.8-0.1-1.1-0.3c-0.4-0.2-0.6-0.5-0.9-0.9C7,22.1,6.9,21.6,6.9,21c0-0.6,0.1-1.2,0.4-1.6c0.3-0.4,0.7-0.8,1.2-1
					c0.5-0.3,1-0.5,1.7-0.6c0.6-0.1,1.3-0.2,2-0.2V20.5z M18.9,24.8c0-0.6,0-1.3,0-1.9v-7.8c0-1-0.1-1.9-0.2-2.9
					c-0.2-0.9-0.5-1.8-0.9-2.6c-0.4-0.8-0.9-1.5-1.6-2.1c-0.7-0.6-1.6-1.1-2.6-1.4c-1-0.3-2.3-0.5-3.7-0.5c-1.3,0-2.4,0.1-3.5,0.3
					c-1,0.2-2,0.4-2.7,0.7C2.8,6.9,2.2,7.1,1.7,7.4l1.3,4.5c0.7-0.4,1.5-0.8,2.5-1.1c0.9-0.3,1.9-0.4,3-0.4c0.9,0,1.6,0.1,2.2,0.4
					c0.5,0.2,0.9,0.6,1.1,1c0.2,0.4,0.3,0.9,0.3,1.5c-1.6,0-3.2,0.2-4.6,0.5c-1.4,0.3-2.7,0.8-3.7,1.5c-1.1,0.7-1.9,1.5-2.5,2.6
					c-0.6,1.1-0.9,2.3-0.9,3.8c0,0.9,0.2,1.8,0.5,2.6C1,25.2,1.4,25.9,2,26.5c0.6,0.6,1.3,1.1,2.1,1.5c0.8,0.4,1.7,0.5,2.7,0.5
					c0.8,0,1.5-0.1,2.2-0.3c0.7-0.2,1.3-0.5,1.9-0.8c0.6-0.4,1.1-0.9,1.6-1.4h0.1l0.4,2.1h6.2c-0.1-0.5-0.2-1-0.2-1.5
					C19,26,18.9,25.4,18.9,24.8L18.9,24.8z"/>
				<path id="Fill-14" class="st0" d="M68.7,19.5c-0.1,0.8-0.3,1.5-0.6,2.1c-0.3,0.6-0.6,1.1-1,1.4c-0.4,0.3-0.9,0.5-1.5,0.5
					c-0.6,0-1.1-0.2-1.5-0.5c-0.4-0.3-0.8-0.8-1.1-1.3c-0.3-0.6-0.5-1.3-0.6-2c-0.1-0.8-0.2-1.6-0.2-2.6c0-0.8,0-1.5,0.1-2.3
					c0.1-0.8,0.3-1.4,0.5-2.1c0.3-0.6,0.6-1.1,1-1.5c0.4-0.4,1-0.6,1.6-0.6c0.6,0,1.1,0.2,1.5,0.5c0.4,0.3,0.8,0.8,1,1.4
					c0.3,0.6,0.5,1.3,0.6,2.1c0.1,0.8,0.2,1.6,0.2,2.4C68.9,17.8,68.9,18.7,68.7,19.5 M75,12.2c-0.5-1.4-1.2-2.6-2-3.6
					c-0.9-1-2-1.8-3.2-2.3c-1.2-0.5-2.7-0.8-4.3-0.8c-1.5,0-2.9,0.3-4.2,0.8C60,6.9,58.9,7.6,58,8.6c-0.9,1-1.7,2.2-2.2,3.7
					c-0.5,1.4-0.8,3.1-0.7,5c0,1.8,0.3,3.4,0.8,4.8c0.5,1.4,1.2,2.6,2.1,3.5c0.9,1,2,1.7,3.3,2.2c1.3,0.5,2.7,0.7,4.2,0.7
					c1,0,1.9-0.1,2.9-0.4c1-0.3,1.9-0.7,2.8-1.3c0.9-0.6,1.7-1.3,2.4-2.2c0.7-0.9,1.2-2,1.6-3.3c0.4-1.3,0.6-2.8,0.6-4.5
					C75.7,15.1,75.5,13.6,75,12.2"/>
				<path id="Fill-16" class="st0" d="M39.5,21V6h-6.9v13.5c0,0.7-0.1,1.4-0.4,1.9c-0.3,0.5-0.6,0.9-1,1.1c-0.4,0.2-0.9,0.4-1.4,0.4
					c-1,0-1.7-0.4-2.1-1.2c-0.4-0.8-0.7-2-0.7-3.5V6h-6.9v13.1c0,2.1,0.3,3.9,0.8,5.3c0.5,1.4,1.3,2.4,2.4,3.1c1,0.7,2.3,1,3.8,1
					c0.8,0,1.5-0.1,2.2-0.3c0.7-0.2,1.2-0.4,1.7-0.8c0.5-0.3,0.9-0.7,1.3-1c0.4-0.4,0.7-0.7,0.9-1.1h0.1l0.3,2.7h6
					c0-1-0.1-2.1-0.1-3.3C39.5,23.6,39.5,22.3,39.5,21"/>
				<path id="Fill-18" class="st0" d="M50.1,0L50.1,0L50.1,0l-6.8,1.9v4h-2.7v5h2.7v9.2c0,0.4,0,0.9,0,1.5c0,0.6,0.1,1.2,0.2,1.8
					c0.1,0.6,0.3,1.2,0.6,1.8c0.3,0.6,0.7,1.1,1.2,1.6c0.5,0.5,1.2,0.9,1.9,1.2c0.8,0.3,1.7,0.4,2.9,0.4c0.9,0,1.8-0.1,2.5-0.2
					c0.7-0.1,1.3-0.2,1.8-0.4l0-5.3c-0.3,0.1-0.6,0.1-0.8,0.2c-0.3,0-0.6,0-1,0c-0.5,0-1-0.1-1.4-0.3c-0.4-0.2-0.6-0.6-0.8-1.1
					c-0.2-0.5-0.3-1.2-0.3-2.1V11h4.6V6h-4.6V0z"/>
			</g>
			<g id="alarm" transform="translate(0.000000, 5.000000)">
				<path id="Fill-1" class="st0" d="M115.6,12.2c0-2.2-1.2-4.2-3.1-5.3c-0.6-0.3-1.3-0.1-1.5,0.6c-0.2,0.5,0.1,1,0.5,1.2
					c1.2,0.7,2,2.1,2,3.5c0,1.6-0.9,3-2.3,3.7c-0.5,0.2-0.7,0.7-0.6,1.2l0,0c0.1,0.6,0.8,1,1.4,0.7
					C114.2,16.8,115.6,14.6,115.6,12.2"/>
				<path id="Fill-3" class="st0" d="M115.1,5.4L115.1,5.4c-0.2,0.5-0.1,1.1,0.3,1.4c1.2,1,2,3,2,5.1c0,2.3-0.9,4.4-2.3,5.4
					c-0.4,0.3-0.6,0.9-0.4,1.4c0.3,0.8,1.2,1.1,1.8,0.7c2.1-1.4,3.4-4.2,3.4-7.4c0-2.9-1.1-5.5-2.9-7C116.4,4.4,115.4,4.7,115.1,5.4
					"/>
				<path id="Fill-5" class="st0" d="M102.8,17.1L102.8,17.1c0.1-0.5-0.1-1-0.6-1.2c-1.4-0.7-2.3-2.1-2.3-3.7c0-1.5,0.8-2.8,2-3.5
					c0.4-0.3,0.7-0.8,0.5-1.2c-0.2-0.6-0.9-0.9-1.5-0.6c-1.9,1.1-3.1,3.1-3.1,5.3c0,2.4,1.4,4.6,3.6,5.6
					C101.9,18,102.6,17.7,102.8,17.1"/>
				<path id="Fill-7" class="st0" d="M93.5,12c0,3.2,1.3,6,3.4,7.4c0.7,0.5,1.6,0.1,1.8-0.7c0.2-0.5,0-1.1-0.4-1.4
					c-1.4-0.9-2.3-3-2.3-5.4c0-2.1,0.8-4.1,2-5.1c0.4-0.3,0.5-0.9,0.3-1.4l0,0c-0.3-0.7-1.3-1-1.9-0.5C94.6,6.5,93.5,9.1,93.5,12"/>
				<path id="Fill-9" class="st0" d="M109.6,12.1c0-1.6-1.3-2.9-2.9-2.9c-1.6,0-2.9,1.3-2.9,2.9s1.3,2.9,2.9,2.9
					C108.4,15,109.6,13.7,109.6,12.1"/>
				<path id="Fill-20" class="st0" d="M59.9,9.1c-0.3,0.5-0.6,0.8-1.1,1.1c-0.5,0.3-1.1,0.4-1.8,0.4h-1.3v-6c0.1,0,0.3-0.1,0.6-0.1
					c0.3,0,0.6,0,1,0c0.3,0,0.6,0,1,0.1c0.3,0.1,0.7,0.2,1,0.4C59.5,5.3,59.8,5.6,60,6c0.2,0.4,0.3,0.9,0.3,1.5
					C60.3,8.1,60.2,8.7,59.9,9.1 M65.7,20.5c-0.1-0.6-0.3-1.2-0.4-1.8c-0.1-0.6-0.3-1.2-0.4-1.9c-0.2-0.7-0.4-1.3-0.6-1.9
					c-0.2-0.6-0.5-1-0.9-1.4c-0.4-0.4-0.8-0.7-1.3-0.9v-0.1c0.7-0.3,1.3-0.7,1.9-1.2c0.6-0.5,1-1.1,1.3-1.9c0.3-0.7,0.5-1.5,0.5-2.4
					c0-1-0.2-1.9-0.4-2.6c-0.3-0.7-0.7-1.3-1.2-1.8c-0.5-0.5-1-0.8-1.7-1.1c-0.6-0.3-1.2-0.5-1.9-0.6c-0.7-0.1-1.3-0.2-1.9-0.3
					c-0.6,0-1.2-0.1-1.7-0.1c-0.8,0-1.5,0-2.2,0.1c-0.7,0-1.4,0.1-2,0.2C52.1,1,51.5,1,51,1.1V23h5v-8.6h1c0.6,0,1,0.1,1.4,0.3
					c0.4,0.2,0.7,0.5,0.9,1c0.2,0.5,0.5,1.2,0.6,2.1c0.2,0.9,0.3,1.7,0.5,2.4c0.2,0.7,0.3,1.3,0.5,1.8c0.1,0.5,0.3,0.8,0.4,1.1h5.2
					c-0.1-0.2-0.2-0.6-0.4-1C66,21.6,65.9,21.1,65.7,20.5"/>
				<path id="Fill-22" class="st0" d="M38.7,14l1-4.5c0.1-0.3,0.1-0.7,0.2-1.1c0.1-0.4,0.2-0.8,0.2-1.2c0.1-0.4,0.2-0.8,0.2-1.2
					c0.1-0.4,0.2-0.8,0.2-1.1h0.1c0.1,0.3,0.1,0.7,0.2,1.1c0.1,0.4,0.2,0.8,0.2,1.2c0.1,0.4,0.2,0.8,0.2,1.2
					c0.1,0.4,0.2,0.8,0.2,1.1l1,4.5H38.7z M43.8,0.8h-6.4l-4.7,17.9L31.5,23h5.1l1.2-5.2H43l1.3,5.2h5.2L43.8,0.8z"/>
				<path id="Fill-24" class="st0" d="M89,0.8h-6.1L81,8c-0.2,0.9-0.4,1.7-0.6,2.7c-0.2,0.9-0.4,1.8-0.6,2.7
					c-0.2,0.9-0.4,1.8-0.5,2.6h-0.1c-0.2-1.3-0.5-2.6-0.8-4c-0.3-1.3-0.6-2.7-0.9-4l-1.8-7.2h-6.2L68,23h4.5l0.4-7.9
					c0-0.8,0.1-1.7,0.1-2.6c0-0.9,0.1-1.9,0.1-2.8c0-1,0.1-1.9,0.1-2.8h0.1c0.2,0.9,0.3,1.8,0.5,2.8c0.2,0.9,0.4,1.8,0.6,2.7
					c0.2,0.9,0.4,1.7,0.6,2.4l2,7.9h3.8l2.2-8c0.2-0.7,0.4-1.5,0.6-2.4c0.2-0.9,0.5-1.8,0.7-2.7c0.2-0.9,0.4-1.8,0.6-2.7H85
					c0,1,0,2,0,2.9c0,1,0,1.9,0.1,2.8c0,0.9,0.1,1.7,0.1,2.5l0.3,7.9h4.8L89,0.8z"/>
				<polygon id="Fill-26" class="st0" points="30.5,18.7 24.5,18.7 24.5,0.8 19.4,0.8 19.4,22.4 19.6,23 29.3,23 29.9,23 31,18.7 
									"/>
				<path id="Fill-28" class="st0" d="M7.3,14l1-4.5c0.1-0.3,0.1-0.7,0.2-1.1c0.1-0.4,0.2-0.8,0.2-1.2C8.8,6.9,8.9,6.4,9,6
					C9,5.6,9.1,5.3,9.2,4.9h0.1C9.3,5.3,9.4,5.6,9.5,6c0.1,0.4,0.2,0.8,0.2,1.2C9.8,7.7,9.9,8.1,10,8.5c0.1,0.4,0.2,0.8,0.2,1.1
					l1,4.5H7.3z M17.8,22.4L12.3,0.8H5.9L0,23h5.1l1.2-5.2h5.1l1.3,5.2h5.2h-0.2V22.4z"/>
			</g>
		</g>
	</g>
</g>
</svg>
