<?xml version="1.0" encoding="UTF-8"?>
<svg width="200px" height="29px" viewBox="0 0 200 29" version="1.1" xmlns="http://www.w3.org/2000/svg" xmlns:xlink="http://www.w3.org/1999/xlink">
    <!-- Generator: Sketch 45.2 (43514) - http://www.bohemiancoding.com/sketch -->
    <title>alar-auto_logo</title>
    <desc>Created with Sketch.</desc>
    <defs></defs>
    <g id="Welcome" stroke="none" stroke-width="1" fill="none" fill-rule="evenodd">
        <g id="Desktop-HD" transform="translate(-310.000000, -16.000000)">
            <g id="alar-auto_logo" transform="translate(310.000000, 16.000000)">
                <g id="auto" transform="translate(124.000000, 0.000000)" fill="#000000">
                    <path d="M12.1596923,20.4860513 C12.146359,21.178359 11.9966154,21.7547692 11.7022564,22.2132308 C11.4078974,22.6706667 11.0284103,23.0173333 10.5771282,23.2460513 C10.1258462,23.4757949 9.66020513,23.5855385 9.17610256,23.5855385 C8.76379487,23.5855385 8.38430769,23.4952821 8.03764103,23.3178462 C7.68584615,23.1352821 7.40276923,22.8542564 7.18738462,22.4675897 C6.97815385,22.0881026 6.86738462,21.5978462 6.86123077,20.9957949 C6.86738462,20.3619487 7.00584615,19.8245128 7.28584615,19.3937436 C7.56174359,18.9547692 7.94635897,18.6081026 8.43661538,18.3527179 C8.92174359,18.0911795 9.48482051,17.9004103 10.1258462,17.7906667 C10.7607179,17.6727179 11.4407179,17.6204103 12.1596923,17.6204103 L12.1596923,20.4860513 Z M18.9043077,24.7701538 C18.8786667,24.1414359 18.8714872,23.4952821 18.8714872,22.8409231 L18.8714872,15.069641 C18.8786667,14.0809231 18.7935385,13.1198974 18.6232821,12.189641 C18.4591795,11.2614359 18.1709744,10.3978462 17.7668718,9.59271795 C17.3668718,8.78861538 16.8171282,8.08297436 16.1237949,7.47374359 C15.4304615,6.86553846 14.5607179,6.39476923 13.5135385,6.05425641 C12.4745641,5.70758974 11.2243077,5.53733333 9.76584615,5.53117949 C8.49712821,5.53733333 7.33815385,5.64194872 6.29097436,5.84502564 C5.24482051,6.04810256 4.33507692,6.29015385 3.55661538,6.57733333 C2.77917949,6.86553846 2.15764103,7.14758974 1.67866667,7.41528205 L2.93610256,11.8901538 C3.64892308,11.4501538 4.47969231,11.0911795 5.41507692,10.8163077 C6.35148718,10.5486154 7.34533333,10.4050256 8.39148718,10.3978462 C9.3145641,10.4050256 10.0345641,10.5291282 10.5443077,10.7773333 C11.0612308,11.0193846 11.4202051,11.3660513 11.6294359,11.7978462 C11.8335385,12.2368205 11.9309744,12.7332308 11.9237949,13.3024615 C10.2889231,13.309641 8.75764103,13.4788718 7.34533333,13.8060513 C5.92482051,14.1404103 4.68276923,14.644 3.61610256,15.3250256 C2.54328205,16.004 1.70635897,16.8747692 1.10430769,17.9270769 C0.50225641,18.9814359 0.20174359,20.244 0.188410256,21.7034872 C0.194564103,22.6378462 0.351487179,23.5209231 0.659179487,24.338359 C0.973025641,25.1568205 1.42533333,25.8757949 2.00687179,26.4973333 C2.5894359,27.1198974 3.28276923,27.6029744 4.09405128,27.9557949 C4.91148718,28.309641 5.81405128,28.4870769 6.82225641,28.4932308 C7.58738462,28.4932308 8.31251282,28.4019487 9.01302564,28.2245128 C9.71353846,28.0409231 10.3535385,27.7670769 10.9494359,27.3875897 C11.5443077,27.0070769 12.0673846,26.5301538 12.5135385,25.9404103 L12.6304615,25.9404103 L13.0232821,28.0604103 L19.2253333,28.0604103 C19.1330256,27.6091282 19.0612308,27.1055385 19.0089231,26.549641 C18.9566154,25.9937436 18.9248205,25.3988718 18.9043077,24.7701538 L18.9043077,24.7701538 Z" id="Fill-11"></path>
                    <path d="M68.7302564,19.4588718 C68.6071795,20.2455385 68.4102564,20.9337436 68.1415385,21.5316923 C67.8789744,22.1234872 67.5374359,22.598359 67.1282051,22.9347692 C66.72,23.2793846 66.2369231,23.4547692 65.6748718,23.4660513 C65.0851282,23.4660513 64.574359,23.3070769 64.145641,22.9901538 C63.7097436,22.6670769 63.3528205,22.2198974 63.0666667,21.6404103 C62.7784615,21.0537436 62.5702564,20.3757949 62.425641,19.5922051 C62.2789744,18.8086154 62.2061538,17.9522051 62.1969231,17.024 C62.1887179,16.2455385 62.2338462,15.4793846 62.3435897,14.7265641 C62.4482051,13.9665641 62.6317949,13.2773333 62.8871795,12.6465641 C63.1497436,12.0219487 63.4912821,11.5224615 63.9251282,11.1450256 C64.3661538,10.7675897 64.9015385,10.5665641 65.5476923,10.5532308 C66.1374359,10.5542564 66.6430769,10.7327179 67.065641,11.0875897 C67.4871795,11.4373333 67.8317949,11.9173333 68.1005128,12.5234872 C68.3671795,13.129641 68.5702564,13.8147692 68.7025641,14.5788718 C68.8338462,15.3429744 68.9005128,16.1337436 68.9076923,16.958359 C68.9169231,17.8475897 68.8605128,18.6793846 68.7302564,19.4588718 M75.014359,12.2086154 C74.5425641,10.8322051 73.8635897,9.6414359 72.9774359,8.64348718 C72.0974359,7.63733333 71.0235897,6.86912821 69.7692308,6.32553846 C68.52,5.78810256 67.0974359,5.52041026 65.5138462,5.52964103 C63.9835897,5.544 62.5866667,5.81989744 61.3097436,6.34194872 C60.0266667,6.86605128 58.9220513,7.62810256 57.9825641,8.63220513 C57.0492308,9.62912821 56.3220513,10.8527179 55.8133333,12.2978462 C55.3107692,13.7419487 55.0594872,15.3922051 55.0707692,17.2506667 C55.094359,19.0301538 55.3579487,20.6168205 55.8697436,22.0116923 C56.3805128,23.4075897 57.0912821,24.5901538 58.0174359,25.5563077 C58.9425641,26.5286154 60.0348718,27.2568205 61.3035897,27.7604103 C62.5641026,28.2598974 63.9651282,28.5009231 65.5035897,28.4927179 C66.4789744,28.4824615 67.4523077,28.3481026 68.4307692,28.0773333 C69.4092308,27.8127179 70.3405128,27.3922051 71.2184615,26.8198974 C72.1025641,26.2506667 72.8871795,25.5091282 73.5712821,24.5993846 C74.2564103,23.6834872 74.7948718,22.5788718 75.1815385,21.2865641 C75.5671795,19.9932308 75.7620513,18.4875897 75.7517949,16.7737436 C75.7353846,15.1050256 75.4861538,13.5829744 75.014359,12.2086154" id="Fill-14"></path>
                    <path d="M39.4833846,20.9563077 L39.4833846,5.96246154 L32.5756923,5.96246154 L32.5756923,19.504 C32.5685128,20.2506667 32.4310769,20.8711795 32.1695385,21.3624615 C31.9008205,21.8598974 31.5613333,22.2260513 31.1428718,22.4732308 C30.7172308,22.7152821 30.2659487,22.8414359 29.788,22.8414359 C28.8331282,22.8342564 28.133641,22.4219487 27.6956923,21.6045128 C27.2495385,20.7932308 27.0341538,19.6352821 27.0413333,18.1306667 L27.0413333,5.96246154 L20.1326154,5.96246154 L20.1326154,19.1122051 C20.1397949,21.2322051 20.4064615,22.984 20.9500513,24.3727179 C21.493641,25.7573333 22.2782564,26.7922051 23.3182564,27.4722051 C24.3582564,28.1532308 25.6208205,28.4927179 27.1192821,28.4927179 C27.9233846,28.4855385 28.6495385,28.3891282 29.3110769,28.1922051 C29.9654359,28.0024615 30.5469744,27.7470769 31.0567179,27.4332308 C31.5674872,27.118359 32.0054359,26.7788718 32.3726154,26.4065641 C32.7449231,26.0393846 33.0464615,25.6732308 33.2813333,25.3142564 L33.3992821,25.3142564 L33.7141538,28.0609231 L39.6792821,28.0609231 C39.6403077,27.0732308 39.5941538,25.9881026 39.5551795,24.7901538 C39.5090256,23.5932308 39.4905641,22.3173333 39.4833846,20.9563077" id="Fill-16"></path>
                    <path d="M50.1144615,0.000820512821 L50.1144615,0.000820512821 L50.1113846,0.000820512821 L43.2847179,1.92389744 L43.2847179,5.96697436 L40.5749744,5.96697436 L40.5749744,10.9515897 L43.2847179,10.9515897 L43.2847179,20.1362051 C43.2775385,20.5618462 43.2908718,21.0592821 43.3236923,21.6274872 C43.3554872,22.1895385 43.4344615,22.7854359 43.5647179,23.4069744 C43.696,24.0356923 43.9052308,24.6438974 44.1934359,25.2387692 C44.481641,25.8346667 44.8744615,26.3772308 45.3842051,26.8613333 C45.8877949,27.3392821 46.536,27.7249231 47.3195897,28.0121026 C48.1124103,28.3003077 49.0672821,28.4510769 50.1924103,28.4582564 C51.1206154,28.4510769 51.9513846,28.4059487 52.6775385,28.3064615 C53.4108718,28.208 53.9924103,28.0910769 54.4313846,27.9474872 L54.3924103,22.6090256 C54.110359,22.688 53.8293333,22.7392821 53.5606154,22.7659487 C53.2939487,22.7926154 52.9657436,22.8049231 52.5862564,22.8049231 C52.0375385,22.8110769 51.5790769,22.6951795 51.2129231,22.4644103 C50.8457436,22.2367179 50.5718974,21.8572308 50.3883077,21.3403077 C50.2057436,20.8233846 50.1144615,20.1290256 50.1144615,19.2726154 L50.1144615,10.9515897 L54.7062564,10.9515897 L54.7062564,5.96697436 L50.1144615,5.96697436 L50.1144615,0.000820512821 Z" id="Fill-18"></path>
                </g>
                <g id="alarm" transform="translate(0.000000, 5.000000)" fill="#FF0000">
                    <path d="M115.605846,12.1807179 C115.605846,9.95405128 114.416103,7.94276923 112.546359,6.85764103 C111.977128,6.52738462 111.246872,6.78789744 111.038667,7.41353846 C110.880718,7.89046154 111.103282,8.38892308 111.537128,8.64430769 C112.770974,9.37046154 113.554564,10.7048205 113.554564,12.1807179 C113.554564,13.8002051 112.624308,15.2268718 111.209949,15.8925128 C110.757641,16.1048205 110.498154,16.5827692 110.612,17.0678974 L110.613026,17.0709744 C110.762769,17.7048205 111.460205,18.0371282 112.052,17.7632821 C114.193538,16.7725128 115.605846,14.6227692 115.605846,12.1807179" id="Fill-1"></path>
                    <path d="M115.117026,5.41138462 L115.114974,5.41548718 C114.887282,5.90882051 115.003179,6.50164103 115.421641,6.84933333 C116.655487,7.87497436 117.466769,9.85138462 117.466769,11.9980513 C117.466769,14.3354872 116.519077,16.4370256 115.127282,17.370359 C114.689333,17.6636923 114.53241,18.2339487 114.696513,18.7354872 C114.946769,19.4995897 115.866769,19.8431795 116.531385,19.3877949 C118.585744,17.9806154 119.927282,15.1631795 119.927282,11.9980513 C119.927282,9.10061538 118.788821,6.45651282 116.987795,4.95394872 C116.37959,4.44728205 115.447282,4.69241026 115.117026,5.41138462" id="Fill-3"></path>
                    <path d="M102.768821,17.0705641 L102.768821,17.0674872 C102.884718,16.582359 102.623179,16.1054359 102.171897,15.8921026 C100.758564,15.2274872 99.8262564,13.8008205 99.8262564,12.1803077 C99.8262564,10.7044103 100.610872,9.37107692 101.844718,8.64492308 C102.277538,8.38953846 102.502154,7.89005128 102.343179,7.41312821 C102.134974,6.78851282 101.404718,6.528 100.835487,6.85723077 C98.9657436,7.94338462 97.7749744,9.95364103 97.7749744,12.1803077 C97.7749744,14.622359 99.1883077,16.7721026 101.328821,17.7628718 C101.920615,18.0367179 102.619077,17.7054359 102.768821,17.0705641" id="Fill-5"></path>
                    <path d="M93.4534359,11.9979487 C93.4534359,15.1630769 94.796,17.9805128 96.8513846,19.3887179 C97.5139487,19.8430769 98.4349744,19.4994872 98.6852308,18.7353846 C98.850359,18.2348718 98.6924103,17.6635897 98.2544615,17.3702564 C96.8626667,16.4369231 95.9149744,14.3353846 95.9149744,11.9979487 C95.9149744,9.85128205 96.7262564,7.87487179 97.9611282,6.84923077 C98.3785641,6.50153846 98.4944615,5.90871795 98.2667692,5.41641026 L98.2647179,5.41128205 C97.9334359,4.69230769 97.0011282,4.44820513 96.3939487,4.95487179 C94.5929231,6.45641026 93.4534359,9.10051282 93.4534359,11.9979487" id="Fill-7"></path>
                    <path d="M109.641333,12.1271795 C109.641333,10.5364103 108.352103,9.24615385 106.761333,9.24615385 C105.170564,9.24615385 103.880308,10.5364103 103.880308,12.1271795 C103.880308,13.7179487 105.170564,15.0071795 106.761333,15.0071795 C108.352103,15.0071795 109.641333,13.7179487 109.641333,12.1271795" id="Fill-9"></path>
                    <path d="M59.9137436,9.12338462 C59.6501538,9.588 59.2675897,9.95620513 58.7650256,10.2238974 C58.2675897,10.4915897 57.6593846,10.6310769 56.9506667,10.6362051 L55.6306667,10.6362051 L55.6306667,4.63415385 C55.7732308,4.59107692 55.9793846,4.55210256 56.2573333,4.52851282 C56.5291282,4.50492308 56.8645128,4.48953846 57.2665641,4.48953846 C57.5681026,4.4854359 57.8942564,4.52441026 58.2378462,4.6054359 C58.5875897,4.68646154 58.9178462,4.83517949 59.229641,5.0505641 C59.5455385,5.26492308 59.804,5.57158974 59.9988718,5.96953846 C60.2009231,6.36646154 60.3065641,6.87928205 60.3106667,7.50492308 C60.3106667,8.11312821 60.1773333,8.65364103 59.9137436,9.12338462 M65.7270769,20.4813333 C65.5886154,19.9018462 65.4398974,19.2946667 65.2922051,18.6618462 C65.1475897,18.0310769 64.9988718,17.413641 64.8563077,16.8095385 C64.6881026,16.1028718 64.4778462,15.4700513 64.2337436,14.9203077 C63.989641,14.3685128 63.6881026,13.9059487 63.3332308,13.522359 C62.9742564,13.1387692 62.5445128,12.8474872 62.0419487,12.6464615 L62.0419487,12.5315897 C62.7311795,12.2577436 63.3486154,11.8608205 63.9034872,11.3397949 C64.4542564,10.8177436 64.8942564,10.1951795 65.2193846,9.47210256 C65.5455385,8.75005128 65.7075897,7.95005128 65.7168205,7.07415385 C65.7127179,6.06492308 65.5650256,5.20338462 65.2727179,4.4854359 C64.9845128,3.77261538 64.5968205,3.17876923 64.1045128,2.71005128 C63.6111795,2.23620513 63.0604103,1.86697436 62.4481026,1.58902564 C61.8357949,1.31210256 61.1988718,1.11107692 60.5434872,0.97774359 C59.8881026,0.847487179 59.2511795,0.761333333 58.6337436,0.723384615 C58.0163077,0.684410256 57.4563077,0.665948718 56.9588718,0.670051282 C56.1875897,0.670051282 55.4460513,0.690564103 54.7270769,0.732615385 C54.0050256,0.771589744 53.3301538,0.828 52.6891282,0.895692308 C52.0522051,0.962358974 51.4778462,1.04441026 50.9568205,1.12953846 L50.9568205,23.0126154 L55.9824615,23.0126154 L55.9824615,14.3685128 L56.9588718,14.3685128 C57.5188718,14.3592821 57.9916923,14.4556923 58.3711795,14.6567179 C58.7486154,14.8526154 59.0645128,15.2013333 59.3086154,15.7008205 C59.5578462,16.1972308 59.7588718,16.8967179 59.9157949,17.7869744 C60.084,18.6618462 60.2522051,19.4526154 60.4193846,20.1603077 C60.5916923,20.8690256 60.7486154,21.4669744 60.8973333,21.9551795 C61.0460513,22.4485128 61.1711795,22.7982564 61.2655385,23.0126154 L66.4932308,23.0126154 C66.3824615,22.788 66.2675897,22.4587692 66.138359,22.0177436 C66.004,21.5726154 65.8706667,21.0608205 65.7270769,20.4813333" id="Fill-20"></path>
                    <path d="M38.7008205,14.0247179 L39.7059487,9.5734359 C39.7726154,9.25241026 39.8403077,8.89753846 39.9172308,8.50164103 C39.9931282,8.10882051 40.0741538,7.70164103 40.1562051,7.28112821 C40.2372308,6.85446154 40.3192821,6.44215385 40.3951795,6.04112821 C40.4762051,5.63394872 40.5531282,5.26164103 40.6249231,4.92112821 L40.682359,4.92112821 C40.7541538,5.26164103 40.8310769,5.62882051 40.9121026,6.03087179 C40.9931282,6.42882051 41.0741538,6.84010256 41.1562051,7.25651282 C41.2372308,7.67394872 41.3182564,8.08523077 41.4003077,8.47702564 C41.4813333,8.87497436 41.5582564,9.23805128 41.6300513,9.5734359 L42.6064615,14.0247179 L38.7008205,14.0247179 Z M43.7828718,0.814461538 L37.3787692,0.814461538 L32.6495385,18.7344615 L31.5203077,23.0134359 L36.6321026,23.0134359 L37.8392821,17.8442051 L42.9500513,17.8442051 L44.242359,23.0134359 L49.4700513,23.0134359 L43.7828718,0.814461538 Z" id="Fill-22"></path>
                    <path d="M89.0012308,0.814564103 L82.9130256,0.814564103 L81.017641,7.96430769 C80.7971282,8.83097436 80.5817436,9.712 80.3714872,10.6166154 C80.1602051,11.5161026 79.9643077,12.4166154 79.777641,13.3161026 C79.5909744,14.2155897 79.4186667,15.0914872 79.2658462,15.9478974 L79.1509744,15.9478974 C78.9304615,14.6371282 78.672,13.3161026 78.3807179,11.9807179 C78.0832821,10.6453333 77.777641,9.31917949 77.4566154,7.99405128 L75.6761026,0.814564103 L69.5017436,0.814564103 L67.9796923,23.0135385 L72.5171282,23.0135385 L72.8904615,15.1150769 C72.9284103,14.3109744 72.9714872,13.4494359 73.0104615,12.526359 C73.0525128,11.5981538 73.0966154,10.6504615 73.1345641,9.68225641 C73.1725128,8.71712821 73.206359,7.7694359 73.2350769,6.84430769 L73.3212308,6.84430769 C73.4740513,7.75917949 73.646359,8.68738462 73.8289231,9.62584615 C74.0104615,10.5591795 74.2012308,11.4637949 74.3930256,12.3345641 C74.5848205,13.206359 74.7766154,13.9961026 74.9581538,14.7130256 L76.9396923,22.6114872 L80.7591795,22.6114872 L82.9417436,14.6566154 C83.1468718,13.937641 83.3622564,13.1489231 83.5878974,12.2771282 C83.817641,11.4114872 84.0432821,10.512 84.2678974,9.58276923 C84.4925128,8.6545641 84.7027692,7.73969231 84.8945641,6.84430769 L84.9807179,6.84430769 C84.9714872,7.82584615 84.9766154,8.79815385 84.9950769,9.75917949 C85.0145641,10.7222564 85.0381538,11.6555897 85.0709744,12.5550769 C85.1048205,13.4545641 85.1437949,14.297641 85.1817436,15.0873846 L85.497641,23.0135385 L90.2648205,23.0135385 L89.0012308,0.814564103 Z" id="Fill-24"></path>
                    <polygon id="Fill-26" points="30.4710769 18.7342564 24.4905641 18.7342564 24.4905641 0.81425641 19.4362051 0.81425641 19.4362051 22.3660513 19.6013333 23.0132308 29.3418462 23.0132308 29.8926154 23.0132308 31.0218462 18.7342564"></polygon>
                    <path d="M7.26851282,14.0247179 L8.27364103,9.5734359 C8.34133333,9.25241026 8.408,8.89753846 8.48492308,8.50164103 C8.56082051,8.10882051 8.64184615,7.70164103 8.72389744,7.28112821 C8.80594872,6.85446154 8.88697436,6.44215385 8.96287179,6.04010256 C9.04389744,5.63394872 9.12082051,5.26164103 9.19261538,4.92112821 L9.25107692,4.92112821 C9.32184615,5.26164103 9.39876923,5.62882051 9.47979487,6.03087179 C9.56082051,6.42882051 9.64184615,6.84010256 9.72389744,7.25651282 C9.80492308,7.67394872 9.88697436,8.08523077 9.968,8.47702564 C10.0490256,8.87497436 10.1259487,9.23805128 10.1977436,9.5734359 L11.1741538,14.0247179 L7.26851282,14.0247179 Z M17.7833846,22.3662564 L12.262359,0.814461538 L5.85825641,0.814461538 L-0.000205128205,23.0134359 L5.11158974,23.0134359 L6.31774359,17.8442051 L11.4295385,17.8442051 L12.7218462,23.0134359 L17.9495385,23.0134359 L17.7833846,23.0134359 L17.7833846,22.3662564 Z" id="Fill-28"></path>
                </g>
            </g>
        </g>
    </g>
</svg>