<?xml version="1.0" encoding="UTF-8"?>
<svg width="24px" height="26px" viewBox="0 0 24 26" version="1.1" xmlns="http://www.w3.org/2000/svg" xmlns:xlink="http://www.w3.org/1999/xlink">
    <!-- Generator: Sketch 45.2 (43514) - http://www.bohemiancoding.com/sketch -->
    <title>alarm_icon</title>
    <desc>Created with Sketch.</desc>
    <defs></defs>
    <g id="Welcome" stroke="none" stroke-width="1" fill="none" fill-rule="evenodd">
        <g id="Desktop-HD" transform="translate(-165.000000, -614.000000)" fill="#FFFFFF">
            <g id="if_jingle-bell-toll-sound-ring-christmas-new_year_1757035" transform="translate(152.000000, 602.000000)">
                <g id="alarm_icon" transform="translate(12.951847, 11.565086)">
                    <g id="g14553" transform="translate(0.000000, 0.296467)">
                        <path d="M12.0459134,0.185799939 C11.6375424,0.196090143 11.2318636,0.311844658 10.8729859,0.53349567 C10.2239827,0.934330019 9.83652729,1.62791041 9.79511036,2.37649194 C7.88527221,2.72696602 6.07421345,3.60729305 4.70093162,5.43540968 C2.71675009,8.53901778 4.30995581,12.8259171 3.23073418,16.3265419 L20.9724006,16.3265419 C19.8217347,12.8351783 21.337905,8.5350046 19.3303229,5.43540968 C18.2899296,3.96976551 16.3971759,2.95893811 14.430286,2.48702932 C14.430286,1.65212326 13.9699368,0.881201691 13.2350969,0.47521195 C12.865865,0.271157188 12.4543878,0.175921342 12.0459134,0.185799939 L12.0459134,0.185799939 Z M12.0707635,1.21281383 C12.2974177,1.20766873 12.5263497,1.26179521 12.7320883,1.37560487 C13.0790587,1.56738342 13.3039526,1.90531375 13.3690807,2.28605133 C12.9029332,2.22225206 12.4387529,2.17780866 11.989897,2.17952713 C11.6058585,2.17952713 11.2206811,2.20031334 10.8371603,2.23375651 C10.9086045,1.89522935 11.1154821,1.59349996 11.4195859,1.40571401 C11.6195261,1.28228301 11.8440058,1.21783545 12.0707635,1.21277267 L12.0707635,1.21281383 Z" id="path14549"></path>
                        <path d="M2.82018887,17.3555624 C1.98470587,19.0303961 0.312497352,21.2164472 0.312497352,21.2164472 L23.6661576,21.2164472 C23.6661576,21.2164472 22.2202926,19.0678525 21.3990985,17.3555624 L2.82018887,17.3555624 Z" id="path14551"></path>
                    </g>
                    <path d="M13.7650266,24.342721 C13.7650266,25.3372675 12.9537707,26.1435068 11.9530359,26.1435068 C10.9523011,26.1435068 10.1410453,25.3372675 10.1410453,24.342721 C10.1410453,23.3481744 10.9523011,22.5419351 11.9530359,22.5419351 C12.9537707,22.5419351 13.7650266,23.3481744 13.7650266,24.342721 L13.7650266,24.342721 Z" id="path14555" fill-rule="nonzero"></path>
                </g>
            </g>
        </g>
    </g>
</svg>