<?xml version="1.0" encoding="UTF-8"?>
<svg width="22px" height="27px" viewBox="0 0 22 27" version="1.1" xmlns="http://www.w3.org/2000/svg" xmlns:xlink="http://www.w3.org/1999/xlink">
    <!-- Generator: Sketch 45.2 (43514) - http://www.bohemiancoding.com/sketch -->
    <title>autosound_icon</title>
    <desc>Created with Sketch.</desc>
    <defs></defs>
    <g id="Welcome" stroke="none" stroke-width="1" fill="none" fill-rule="evenodd">
        <g id="Desktop-HD" transform="translate(-166.000000, -419.000000)" fill-rule="nonzero" fill="#FFFFFF">
            <g id="if_music-player_1645996" transform="translate(152.000000, 408.000000)">
                <path d="M34.3851168,15.5490652 L22.9754212,11.5870901 C22.5365868,11.4328527 22.0587448,11.5003316 21.6784216,11.7702471 C21.2980985,12.0305229 21.0738053,12.4643158 21.0738053,12.9173883 L21.0738053,26.914439 C20.3911739,26.2203703 19.43549,25.7962173 18.3822874,25.7962173 C16.2953858,25.7962173 14.5985592,27.4735498 14.5985592,29.536476 C14.5985592,31.5994022 16.2953858,33.2767347 18.3822874,33.2767347 C20.469189,33.2767347 22.1660155,31.5994022 22.1660155,29.536476 L22.1660155,12.9173883 C22.1660155,12.7631509 22.2635342,12.6763923 22.3025417,12.6474728 C22.3415493,12.6185532 22.4585718,12.5510743 22.6048499,12.6089134 L34.0145455,16.5708885 C34.1510718,16.6190877 34.2388387,16.7444056 34.2388387,16.8793634 L34.2388387,31.4837241 C33.5562073,30.7896555 32.6005234,30.3655024 31.5473208,30.3655024 C29.4604192,30.3655024 27.7635926,32.0428349 27.7635926,34.1057611 C27.7635926,36.1686873 29.4604192,37.8460198 31.5473208,37.8460198 C33.6342223,37.8460198 35.3310489,36.1686873 35.3310489,34.1057611 L35.3310489,16.8793634 C35.3310489,16.2816932 34.9507257,15.741862 34.3851168,15.5490652 Z M18.3822874,32.1970724 C16.9000021,32.1970724 15.6907694,31.001732 15.6907694,29.536476 C15.6907694,28.07122 16.9000021,26.8758796 18.3822874,26.8758796 C19.8645726,26.8758796 21.0738053,28.07122 21.0738053,29.536476 C21.0738053,31.001732 19.8645726,32.1970724 18.3822874,32.1970724 Z M31.5473208,36.7663575 C30.0650355,36.7663575 28.8558028,35.5710171 28.8558028,34.1057611 C28.8558028,32.6405051 30.0650355,31.4451647 31.5473208,31.4451647 C33.029606,31.4451647 34.2388387,32.6405051 34.2388387,34.1057611 C34.2388387,35.5710171 33.029606,36.7663575 31.5473208,36.7663575 Z" id="autosound_icon"></path>
            </g>
        </g>
    </g>
</svg>