<?xml version="1.0" encoding="UTF-8"?>
<svg width="49px" height="72px" viewBox="0 0 49 72" version="1.1" xmlns="http://www.w3.org/2000/svg" xmlns:xlink="http://www.w3.org/1999/xlink">
    <!-- Generator: Sketch 45.2 (43514) - http://www.bohemiancoding.com/sketch -->
    <title>guaranted_icon</title>
    <desc>Created with Sketch.</desc>
    <defs></defs>
    <g id="Welcome" stroke="none" stroke-width="1" fill="none" fill-rule="evenodd">
        <g id="Desktop-HD" transform="translate(-491.000000, -1193.000000)" fill-rule="nonzero" fill="#FFFFFF">
            <path d="M530.439897,1193 L500.022199,1193 C495.038508,1193 491,1197.04421 491,1202.03495 L491,1247.29572 C491,1252.28645 495.038508,1256.33067 500.022199,1256.33067 L514.715493,1256.33067 L514.715493,1263.21444 C514.715493,1263.81677 515.059196,1264.4191 515.660676,1264.67724 C516.262156,1264.93538 516.949562,1264.76328 517.37919,1264.33305 L521.589549,1260.11674 L525.799909,1264.33305 C526.057686,1264.59119 526.487314,1264.76328 526.916943,1264.76328 C527.088794,1264.76328 527.346571,1264.76328 527.518423,1264.67724 C528.119903,1264.4191 528.463605,1263.90281 528.463605,1263.21444 L528.463605,1256.33067 L530.439897,1256.33067 C535.423587,1256.33067 539.462095,1252.28645 539.462095,1247.29572 L539.462095,1202.12099 C539.548021,1197.13026 535.423587,1193 530.439897,1193 Z M525.37028,1259.51441 L522.706584,1256.84695 C522.362881,1256.50276 522.019178,1256.41671 521.589549,1256.41671 C521.159921,1256.41671 520.816218,1256.58881 520.472515,1256.84695 L517.808819,1259.51441 L517.808819,1250.82365 C519.011778,1251.25389 520.300664,1251.42598 521.589549,1251.42598 C522.878435,1251.42598 524.16732,1251.16784 525.37028,1250.82365 L525.37028,1259.51441 Z M521.589549,1248.32829 C516.77771,1248.32829 512.911054,1244.45617 512.911054,1239.63753 C512.911054,1234.81889 516.77771,1230.94677 521.589549,1230.94677 C526.401389,1230.94677 530.268045,1234.81889 530.268045,1239.63753 C530.268045,1244.45617 526.401389,1248.32829 521.589549,1248.32829 Z M536.36877,1247.38177 C536.36877,1250.65156 533.705073,1253.31902 530.439897,1253.31902 L528.463605,1253.31902 L528.463605,1249.27481 C531.471005,1247.12363 533.36137,1243.5957 533.36137,1239.63753 C533.36137,1233.09795 528.033977,1227.76303 521.503624,1227.76303 C514.97327,1227.76303 509.645877,1233.09795 509.645877,1239.63753 C509.645877,1243.5957 511.622168,1247.12363 514.543642,1249.27481 L514.543642,1253.31902 L500.022199,1253.31902 C496.757022,1253.31902 494.093325,1250.65156 494.093325,1247.38177 L494.093325,1202.12099 C494.093325,1198.8512 496.757022,1196.18374 500.022199,1196.18374 L530.439897,1196.18374 C533.705073,1196.18374 536.36877,1198.8512 536.36877,1202.12099 L536.36877,1247.38177 Z M531.127302,1202.03495 L499.334793,1202.03495 C498.475536,1202.03495 497.78813,1202.72332 497.78813,1203.58379 C497.78813,1204.44426 498.475536,1205.13264 499.334793,1205.13264 L531.213228,1205.13264 C532.072485,1205.13264 532.75989,1204.44426 532.75989,1203.58379 C532.75989,1202.72332 531.986559,1202.03495 531.127302,1202.03495 Z M531.127302,1211.41408 L499.334793,1211.41408 C498.475536,1211.41408 497.78813,1212.10246 497.78813,1212.96293 C497.78813,1213.8234 498.475536,1214.51178 499.334793,1214.51178 L531.213228,1214.51178 C532.072485,1214.51178 532.75989,1213.8234 532.75989,1212.96293 C532.75989,1212.10246 531.986559,1211.41408 531.127302,1211.41408 Z M531.127302,1220.79321 L499.334793,1220.79321 C498.475536,1220.79321 497.78813,1221.48159 497.78813,1222.34206 C497.78813,1223.20253 498.475536,1223.89091 499.334793,1223.89091 L531.213228,1223.89091 C532.072485,1223.89091 532.75989,1223.20253 532.75989,1222.34206 C532.75989,1221.48159 531.986559,1220.79321 531.127302,1220.79321 Z M527.778463,1237.72064 L521.812458,1245.28207 C521.511685,1245.66707 521.066564,1245.89006 520.597289,1245.89314 C520.594413,1245.89314 520.590388,1245.89314 520.586362,1245.89314 C520.121113,1245.89314 519.678867,1245.67693 519.374068,1245.3024 L516.708516,1242.02588 C516.124798,1241.30824 516.194959,1240.22038 516.863216,1239.59636 C517.533198,1238.97112 518.548811,1239.04566 519.132529,1239.76392 L520.566234,1241.52569 L525.32282,1235.49872 C525.895036,1234.77245 526.910649,1234.67882 527.588107,1235.29482 C528.266141,1235.90836 528.35183,1236.99437 527.778463,1237.72064 Z" id="guaranted_icon"></path>
        </g>
    </g>
</svg>