<?xml version="1.0" encoding="UTF-8"?>
<svg width="19px" height="30px" viewBox="0 0 19 30" version="1.1" xmlns="http://www.w3.org/2000/svg" xmlns:xlink="http://www.w3.org/1999/xlink">
    <!-- Generator: Sketch 45.2 (43514) - http://www.bohemiancoding.com/sketch -->
    <title>nav_icon</title>
    <desc>Created with Sketch.</desc>
    <defs></defs>
    <g id="Welcome" stroke="none" stroke-width="1" fill="none" fill-rule="evenodd">
        <g id="Desktop-HD" transform="translate(-167.000000, -487.000000)" fill-rule="nonzero" fill="#FFFFFF">
            <g id="Group-18" transform="translate(152.000000, 476.000000)">
                <path d="M24.4143484,11.4884712 C19.5045409,11.4884712 15.5200922,15.4844112 15.5200922,20.4065079 C15.5200922,21.5836556 15.8358743,22.9444182 16.2209142,23.946905 C18.7562575,29.3510273 21.2922703,34.7647478 23.8268946,40.1727873 C23.9323642,40.3991022 24.1752774,40.5540083 24.4246546,40.5540083 C24.6740318,40.5540083 24.916945,40.3991022 25.0224146,40.1727873 L32.6077826,23.9881913 C33.0468963,22.8173192 33.3231455,21.5565057 33.3292171,20.4065079 C33.3292171,15.4824294 29.3241559,11.4884712 24.4143484,11.4884712 Z M24.4143484,12.8096617 C28.6124571,12.8096617 32.0100226,16.1973921 32.0100226,20.4065079 C32.0100226,21.3119225 31.729951,22.5786779 31.4122626,23.4204753 C28.9836752,28.6113424 26.5081046,33.8833354 24.4246546,38.325144 C21.982585,33.1354263 19.5241144,27.867628 17.4370466,23.4204753 C17.1204795,22.5775219 16.8392866,21.3105684 16.8392866,20.4065079 C16.8392866,16.1954104 20.2162397,12.8096617 24.4143484,12.8096617 Z M24.4246381,16.1126396 C22.056783,16.1126396 20.1372562,18.0350706 20.1372562,20.4065079 C20.1372562,22.7779486 22.056783,24.7003795 24.4246381,24.7003795 C26.7924932,24.7003795 28.71202,22.7779486 28.71202,20.4065079 C28.71202,18.0350706 26.7924932,16.1126396 24.4246381,16.1126396 Z" id="nav_icon"></path>
            </g>
        </g>
    </g>
</svg>