<?xml version="1.0" encoding="UTF-8"?>
<svg width="27px" height="26px" viewBox="0 0 27 26" version="1.1" xmlns="http://www.w3.org/2000/svg" xmlns:xlink="http://www.w3.org/1999/xlink">
    <!-- Generator: Sketch 45.2 (43514) - http://www.bohemiancoding.com/sketch -->
    <title>nosound_icon</title>
    <desc>Created with Sketch.</desc>
    <defs></defs>
    <g id="Welcome" stroke="none" stroke-width="1" fill="none" fill-rule="evenodd">
        <g id="Desktop-HD" transform="translate(-163.000000, -549.000000)" fill="#FFFFFF">
            <g id="Group-12" transform="translate(152.000000, 538.000000)">
                <path d="M26.8956418,33.4787115 C26.86819,33.5961013 26.8394309,33.7132729 26.8111075,33.8304445 C26.6897529,33.7680403 26.5431251,33.7309468 26.4505296,33.6393042 C25.3881862,32.58716 24.3339041,31.5269426 23.2774434,30.4686889 C22.8408281,30.0312046 22.3924477,29.6046302 21.9750052,29.149472 C21.8560471,29.0198632 21.7662839,28.8079942 21.7656303,28.6332187 C21.7549546,25.6290874 21.7621444,22.6251742 21.7601835,19.6210429 C21.7599656,19.2466174 22.0168366,19.040858 22.2427697,18.8126243 C22.8384315,18.2104016 23.4380149,17.6118882 24.0378162,17.013593 C24.6114729,16.441045 25.1877441,15.8713336 25.7614008,15.2990038 C25.9751331,15.0856075 26.1849437,14.8680654 26.3962795,14.6520507 C26.4219883,14.6258671 26.4407253,14.5872463 26.4716631,14.5719726 C26.5805991,14.5172052 26.6934567,14.4700747 26.8050071,14.4198895 C26.8294088,14.5296424 26.874944,14.6393953 26.8751619,14.7491483 C26.8795193,16.4949396 26.8779942,18.2407309 26.8777763,19.9865222 L26.8777763,24.091892 L26.8821338,24.091892 C26.8821338,25.0166094 26.8806087,25.9411086 26.8821338,26.8656077 C26.8862733,29.0554292 26.8917201,31.2450325 26.8965133,33.4346358 C26.8965133,33.449255 26.8991278,33.4647469 26.8956418,33.4787115 M20.3799651,28.1939889 C20.352949,28.4887725 20.2522922,28.5799787 19.9557685,28.5799787 C18.9289383,28.5797605 17.9018902,28.5793241 16.87506,28.5788877 C15.8331966,28.5784514 14.7913332,28.5793241 13.7496877,28.5767058 C13.3557754,28.575833 13.2481466,28.4658619 13.2477109,28.0744171 C13.2457501,25.447766 13.2440071,22.8208966 13.242482,20.1942454 C13.2422641,19.7875269 13.3509822,19.6810469 13.7533916,19.6812651 C15.7998622,19.6817015 17.8465508,19.6821379 19.8930214,19.6812651 C20.2873695,19.6810469 20.383451,19.7742169 20.3836689,20.1807172 C20.3847583,21.4903335 20.3841047,22.8001679 20.3841047,24.1097841 C20.3845404,25.4119817 20.3847583,26.7143975 20.3845404,28.0168132 C20.3845404,28.0757263 20.3854119,28.135294 20.3799651,28.1939889 M28.2479726,12.597293 C28.2588662,13.2407549 28.2492799,13.8848714 28.2492799,14.5285514 L28.2492799,24.1418591 C28.2492799,27.9308437 28.2486263,31.7200466 28.2512407,35.5092495 C28.2512407,35.7540661 28.2120238,35.965935 28.0344582,36.1594754 C27.7804196,36.4357124 27.4126518,36.4978984 27.1394405,36.2397718 C26.630056,35.7582118 26.1359225,35.2602871 25.6383031,34.7660717 C25.0463452,34.1782499 24.4563481,33.588028 23.8676583,32.9967151 C22.9194798,32.044505 21.9730443,31.0909857 21.0268267,30.13703 C20.8738807,29.9829831 20.686293,29.9482899 20.4788789,29.9485081 C18.0182338,29.95069 15.5573708,29.9500354 13.0967257,29.9500354 C12.9638238,29.9500354 12.8307041,29.9504718 12.6978022,29.9485081 C12.2019258,29.9419622 11.8685818,29.6079031 11.8681461,29.1086692 C11.866621,27.2583617 11.8679282,25.4084906 11.8677103,23.558183 C11.8674925,22.1298678 11.8820899,20.7013344 11.858124,19.2734556 C11.8487555,18.7129084 12.2014901,18.2911343 12.8396368,18.2978984 C15.3593253,18.3238638 17.8792315,18.3077173 20.3991378,18.3160087 C20.7002368,18.3170997 20.9231197,18.2276391 21.1409916,18.0076969 C23.065454,16.063783 25.0003743,14.1303426 26.9387805,12.2003933 C27.0740789,12.0655478 27.2512088,11.9250291 27.4289922,11.8898995 C27.8743224,11.8019662 28.2401293,12.130134 28.2479726,12.597293 Z M35.2462792,24.4029968 C35.989876,25.1415924 36.7326012,25.8808426 37.4746729,26.6211838 C37.7997377,26.9456423 37.8378653,27.2484992 37.6010386,27.5912861 C37.3740161,27.9205448 36.9517804,27.9818581 36.6620107,27.701039 C35.9079561,26.9707349 35.1658845,26.2282117 34.4190196,25.4904889 C34.3508257,25.4228479 34.2826318,25.3549887 34.2131307,25.288657 C34.0834969,25.1655941 33.9582206,25.1614483 33.8268438,25.2930209 C33.2952364,25.8262935 32.7623218,26.3578205 32.2274463,26.8878201 C31.9444307,27.1682028 31.6614151,27.4492401 31.3692489,27.7202403 C31.1657566,27.908544 30.8023463,27.9190175 30.5853459,27.7616977 C30.3491727,27.5904133 30.2295611,27.2522085 30.34024,26.9980094 C30.4034228,26.8524723 30.4901358,26.7062805 30.6005969,26.5941275 C31.3160882,25.8666599 32.040948,25.1485747 32.7629754,24.427653 C32.993266,24.1976738 32.9939196,24.06261 32.7612324,23.8297942 C32.0341939,23.1031994 31.3054125,22.3785684 30.5801169,21.6504462 C30.2679065,21.3371158 30.2180138,21.0207307 30.4169309,20.6923447 C30.542643,20.4846215 30.6958069,20.4001794 30.9764259,20.398652 C31.3104235,20.3578493 31.4927823,20.6362682 31.7025929,20.8411548 C32.4045761,21.5271651 33.0910905,22.2286673 33.7871912,22.9205688 C33.9887226,23.1208733 34.0597489,23.118255 34.2645485,22.9151139 C35.0312396,22.155135 35.7909589,21.3881738 36.5617897,20.6323406 C36.9938296,20.208821 37.5252192,20.3345022 37.7300187,20.9044319 C37.8398262,21.2094708 37.6524563,21.4464323 37.467701,21.6362634 C36.7373944,22.3877326 35.9872615,23.1202187 35.2436647,23.8588144 C35.0724174,24.0292259 35.0739425,24.2317124 35.2462792,24.4029968 Z" id="nosound_icon"></path>
            </g>
        </g>
    </g>
</svg>