<?xml version="1.0" encoding="UTF-8"?>
<svg width="14px" height="38px" viewBox="0 0 14 38" version="1.1" xmlns="http://www.w3.org/2000/svg" xmlns:xlink="http://www.w3.org/1999/xlink">
    <!-- Generator: Sketch 45.2 (43514) - http://www.bohemiancoding.com/sketch -->
    <title>parktronic</title>
    <desc>Created with Sketch.</desc>
    <defs></defs>
    <g id="Welcome" stroke="none" stroke-width="1" fill="none" fill-rule="evenodd">
        <g id="Desktop-HD" transform="translate(-170.000000, -348.000000)">
            <g id="Group-9" transform="translate(152.000000, 341.578975)">
                <g id="parktronic" transform="translate(17.977615, 6.731612)">
                    <path d="M10.6561965,24.7533261 L10.648422,24.7533261 C10.648422,24.2238532 10.6515318,23.6951589 10.6476445,23.165686 C10.6460896,22.92353 10.5310262,22.8542313 10.3040091,22.9056213 C9.88496047,23.000615 9.4651344,23.1174105 9.03986613,23.1532278 C8.26241043,23.2186333 7.48106745,23.2482214 6.70127939,23.2606796 C6.17960662,23.2692446 5.65715639,23.199946 5.13548361,23.2053964 C4.51740633,23.2124042 3.93431456,23.02631 3.33489622,22.9344309 C3.0736711,22.8947204 2.99514808,22.9274231 2.99514808,23.1929382 C2.99514808,24.228525 2.99670299,25.2633331 3.00758737,26.2989198 C3.00914228,26.4320667 3.03013358,26.5901299 3.10399187,26.6921313 C3.33411876,27.012151 3.66298252,27.2247188 4.03227398,27.3383997 C4.41322727,27.4575311 4.80972968,27.5276084 5.20156735,27.6070294 C6.09952868,27.7884517 7.00837439,27.8001313 7.910223,27.6778853 C8.41090447,27.6093653 8.9193605,27.564983 9.40993504,27.3921257 C9.79166579,27.2574215 10.1391885,27.0915719 10.4237373,26.8112627 C10.5776735,26.6586499 10.6600838,26.4639908 10.6577514,26.2366289 C10.6530867,25.7429732 10.6561965,25.2477603 10.6561965,24.7533261 M6.82800467,10.5447646 C6.36075379,10.6093914 5.91371677,10.6818047 5.46512483,10.7308588 C4.88747525,10.794707 4.34869845,10.9932593 3.83091295,11.2323008 C3.31468237,11.4697849 2.85987079,11.8131637 2.49135678,12.2554293 C2.28299866,12.5053717 2.12595261,12.772444 2.20758545,13.1181587 C2.21536001,13.1516401 2.2138051,13.1874574 2.21769238,13.2209387 C2.2892183,13.7620912 2.35685695,14.3032437 2.43304761,14.8428389 C2.49524406,15.2874404 2.56676999,15.729706 2.63518609,16.1719716 C2.6577323,16.325363 2.74480734,16.370524 2.89330138,16.3378212 C3.22838479,16.2630721 3.56191328,16.179758 3.90088396,16.1275893 C4.56327622,16.0240307 5.22644593,15.9181361 5.89350292,15.8503947 C6.6888401,15.7694165 7.48650964,15.7787601 8.28029191,15.9041206 C8.93724198,16.0084579 9.59652441,16.0948866 10.2534745,16.1929948 C10.3607634,16.2085676 10.4672748,16.2373771 10.5698989,16.273973 C10.8653321,16.3806462 10.9228638,16.3580658 10.9679563,16.0419393 C11.1148954,15.0024594 11.2587247,13.9614222 11.3893372,12.9180491 C11.4048864,12.7880168 11.3636812,12.6229458 11.2898229,12.5123794 C10.9073147,11.9369669 10.3833096,11.5094954 9.76523229,11.216728 C9.38661137,11.0376416 8.9807795,10.8912579 8.57106034,10.8040506 C7.99574313,10.681026 7.4048768,10.6265215 6.82800467,10.5447646 M0.951217047,25.1223998 C1.01652333,24.1296381 1.08804925,23.1384337 1.14480352,22.145672 C1.15957517,21.894951 1.16890464,21.6317718 1.11059546,21.3919517 C0.995532021,20.9247697 0.984647642,20.4544732 1.01263605,19.9857339 C1.08727179,18.7056553 1.17901157,17.4279125 1.27230625,16.1486125 C1.30884667,15.6510637 1.37259803,15.1542935 1.41691301,14.6567447 C1.4293523,14.5173688 1.40214135,14.3881151 1.27230625,14.2900069 C1.15491044,14.2020209 1.04917646,14.1685395 0.909234439,14.2331664 C0.770069869,14.2977932 0.620798375,14.3413969 0.479301438,14.4036878 C0.319145564,14.4753224 0.209524311,14.4200392 0.107677614,14.2907855 C-0.0136054747,14.1381727 -0.03615169,13.9886745 0.0594753609,13.8329472 C0.212634133,13.5837834 0.451313033,13.4319493 0.696989033,13.2956879 C0.892907869,13.1874574 0.929448287,13.1228305 0.91623154,12.9016977 C0.866474375,12.0872438 0.823714312,11.2735685 0.781731704,10.4591146 C0.758408033,10.0098412 0.944997401,9.62285882 1.14713588,9.2421055 C1.22721382,9.09104999 1.30262702,8.93765857 1.37959514,8.78426716 C1.54441574,8.45879704 1.69368724,8.12398328 1.87716678,7.80863544 C2.14772137,7.34768255 2.45714873,6.91086739 2.92673198,6.62588638 C3.23771425,6.43667768 3.54869653,6.24046124 3.87911521,6.09018437 C4.14733742,5.96871705 4.44121567,5.90019703 4.72887428,5.82778382 C5.65249165,5.59497146 6.59476796,5.59185692 7.53704426,5.63001011 C8.13957243,5.65492649 8.72577403,5.78573744 9.30653343,5.95548023 C9.70770057,6.07305436 10.0801019,6.24435443 10.428402,6.46081541 C10.7720374,6.67571913 11.1071208,6.91865376 11.3279182,7.27371207 C11.5502706,7.63188492 11.7656258,7.99550824 11.9732065,8.3622461 C12.1590184,8.68927349 12.3572696,9.01318633 12.4987665,9.35967964 C12.6371536,9.69994385 12.8011968,10.0355362 12.7903124,10.4287477 C12.7700986,11.2276289 12.7887575,12.0272888 12.6527028,12.8199409 C12.6099427,13.0745551 12.6799137,13.1703274 12.9154828,13.2917947 C13.156494,13.4163765 13.3741816,13.5767757 13.5195659,13.8134812 C13.605086,13.9536358 13.6004213,14.0984622 13.4892451,14.2292732 C13.3306441,14.4145887 13.2668928,14.4309401 13.0756387,14.3507405 C12.9115955,14.2822205 12.7459974,14.216815 12.5811768,14.1529668 C12.429573,14.0945691 12.1590184,14.3040223 12.1582409,14.4994601 C12.1574635,14.7634179 12.1745675,15.0281544 12.1971137,15.2913336 C12.2585327,16.0014502 12.3129546,16.7123455 12.3930326,17.4193475 C12.5073185,18.4261247 12.6013907,19.4336805 12.5757346,20.4482441 C12.5687375,20.7231028 12.5252,20.9979615 12.5197578,21.2728203 C12.5119833,21.7882777 12.4855498,22.3076284 12.5259775,22.8207499 C12.6488155,24.3492137 12.6799137,25.8776774 12.5290873,27.4030266 C12.480885,27.8943463 12.3230615,28.3763224 12.1963363,28.8575198 C12.13103,29.1051263 12.0400677,29.3488395 11.9343337,29.5808733 C11.7765102,29.9226947 11.561155,30.2224699 11.2462854,30.4443813 C10.9625141,30.642155 10.6507543,30.7753019 10.3218906,30.8788605 C10.0334545,30.9691824 9.75201555,31.083642 9.46824422,31.1872007 C9.41926451,31.2043307 9.36950734,31.2214607 9.31897272,31.2300257 C8.7840832,31.325798 8.23986422,31.3865316 7.71508162,31.5235717 C6.84433124,31.7517122 6.00001435,31.5243503 5.15336509,31.4145626 C4.62469522,31.3460425 4.10069008,31.1817502 3.59534388,31.0026638 C3.16307851,30.8508296 2.74480734,30.6413764 2.34908239,30.4093427 C2.15705083,30.2956617 1.99378514,30.0916589 1.88027661,29.8938852 C1.50709787,29.2413877 1.2785259,28.5351643 1.19456068,27.7845585 C1.14480352,27.3391784 1.05539611,26.89847 1.02507534,26.4530899 C0.996309477,26.0116029 1.01885569,25.56778 1.01885569,25.1255144 C0.996309477,25.1247358 0.973763262,25.1231785 0.951217047,25.1223998" id="Fill-1" fill="#FFFFFF"></path>
                    <path d="M0.73267425,4.91864768 C0.73267425,2.36783403 3.44443972,0.299775108 6.78983159,0.299775108 C10.134446,0.299775108 12.8469889,2.36783403 12.8469889,4.91864768" id="Stroke-3" stroke="#FFFFFF" stroke-width="0.77" stroke-linecap="round"></path>
                    <path d="M2.41283376,4.88212962 C2.41283376,3.03831805 4.37202212,1.54411433 6.78913188,1.54411433 C9.20624165,1.54411433 11.1662075,3.03831805 11.1662075,4.88212962" id="Stroke-5" stroke="#FFFFFF" stroke-width="0.642" stroke-linecap="round"></path>
                    <path d="M3.9028276,4.93040509 C3.9028276,3.71417465 5.19495897,2.7291993 6.78952061,2.7291993 C8.38330479,2.7291993 9.67621362,3.71417465 9.67621362,4.93040509" id="Stroke-7" stroke="#FFFFFF" stroke-width="0.424" stroke-linecap="round"></path>
                    <path d="M0.73267425,32.1268594 C0.73267425,34.6768944 3.44443972,36.7457319 6.78983159,36.7457319 C10.134446,36.7457319 12.8469889,34.6768944 12.8469889,32.1268594" id="Stroke-9" stroke="#FFFFFF" stroke-width="0.77" stroke-linecap="round"></path>
                    <path d="M2.41283376,32.1632996 C2.41283376,34.0063325 4.37202212,35.5005362 6.78913188,35.5005362 C9.20624165,35.5005362 11.1662075,34.0063325 11.1662075,32.1632996" id="Stroke-11" stroke="#FFFFFF" stroke-width="0.642" stroke-linecap="round"></path>
                    <path d="M3.9028276,32.1146348 C3.9028276,33.3308652 5.19495897,34.3158406 6.78952061,34.3158406 C8.38330479,34.3158406 9.67621362,33.3308652 9.67621362,32.1146348" id="Stroke-13" stroke="#FFFFFF" stroke-width="0.424" stroke-linecap="round"></path>
                </g>
            </g>
        </g>
    </g>
</svg>