<?xml version="1.0" encoding="UTF-8"?>
<svg width="49px" height="72px" viewBox="0 0 49 72" version="1.1" xmlns="http://www.w3.org/2000/svg" xmlns:xlink="http://www.w3.org/1999/xlink">
    <!-- Generator: Sketch 45.2 (43514) - http://www.bohemiancoding.com/sketch -->
    <title>sertifikat_icon</title>
    <desc>Created with Sketch.</desc>
    <defs></defs>
    <g id="Welcome" stroke="none" stroke-width="1" fill="none" fill-rule="evenodd">
        <g id="Desktop-HD" transform="translate(-276.000000, -1193.000000)" fill-rule="nonzero" fill="#FFFFFF">
            <path d="M315.439897,1193 L285.022199,1193 C280.038508,1193 276,1197.04421 276,1202.03495 L276,1247.29572 C276,1252.28645 280.038508,1256.33067 285.022199,1256.33067 L299.715493,1256.33067 L299.715493,1263.21444 C299.715493,1263.81677 300.059196,1264.4191 300.660676,1264.67724 C301.262156,1264.93538 301.949562,1264.76328 302.37919,1264.33305 L306.589549,1260.11674 L310.799909,1264.33305 C311.057686,1264.59119 311.487314,1264.76328 311.916943,1264.76328 C312.088794,1264.76328 312.346571,1264.76328 312.518423,1264.67724 C313.119903,1264.4191 313.463605,1263.90281 313.463605,1263.21444 L313.463605,1256.33067 L315.439897,1256.33067 C320.423587,1256.33067 324.462095,1252.28645 324.462095,1247.29572 L324.462095,1202.12099 C324.548021,1197.13026 320.423587,1193 315.439897,1193 Z M310.37028,1259.51441 L307.706584,1256.84695 C307.362881,1256.50276 307.019178,1256.41671 306.589549,1256.41671 C306.159921,1256.41671 305.816218,1256.58881 305.472515,1256.84695 L302.808819,1259.51441 L302.808819,1250.82365 C304.011778,1251.25389 305.300664,1251.42598 306.589549,1251.42598 C307.878435,1251.42598 309.16732,1251.16784 310.37028,1250.82365 L310.37028,1259.51441 Z M306.589549,1248.32829 C301.77771,1248.32829 297.911054,1244.45617 297.911054,1239.63753 C297.911054,1234.81889 301.77771,1230.94677 306.589549,1230.94677 C311.401389,1230.94677 315.268045,1234.81889 315.268045,1239.63753 C315.268045,1244.45617 311.401389,1248.32829 306.589549,1248.32829 Z M321.36877,1247.38177 C321.36877,1250.65156 318.705073,1253.31902 315.439897,1253.31902 L313.463605,1253.31902 L313.463605,1249.27481 C316.471005,1247.12363 318.36137,1243.5957 318.36137,1239.63753 C318.36137,1233.09795 313.033977,1227.76303 306.503624,1227.76303 C299.97327,1227.76303 294.645877,1233.09795 294.645877,1239.63753 C294.645877,1243.5957 296.622168,1247.12363 299.543642,1249.27481 L299.543642,1253.31902 L285.022199,1253.31902 C281.757022,1253.31902 279.093325,1250.65156 279.093325,1247.38177 L279.093325,1202.12099 C279.093325,1198.8512 281.757022,1196.18374 285.022199,1196.18374 L315.439897,1196.18374 C318.705073,1196.18374 321.36877,1198.8512 321.36877,1202.12099 L321.36877,1247.38177 Z M316.127302,1202.03495 L284.334793,1202.03495 C283.475536,1202.03495 282.78813,1202.72332 282.78813,1203.58379 C282.78813,1204.44426 283.475536,1205.13264 284.334793,1205.13264 L316.213228,1205.13264 C317.072485,1205.13264 317.75989,1204.44426 317.75989,1203.58379 C317.75989,1202.72332 316.986559,1202.03495 316.127302,1202.03495 Z M316.127302,1211.41408 L284.334793,1211.41408 C283.475536,1211.41408 282.78813,1212.10246 282.78813,1212.96293 C282.78813,1213.8234 283.475536,1214.51178 284.334793,1214.51178 L316.213228,1214.51178 C317.072485,1214.51178 317.75989,1213.8234 317.75989,1212.96293 C317.75989,1212.10246 316.986559,1211.41408 316.127302,1211.41408 Z M316.127302,1220.79321 L284.334793,1220.79321 C283.475536,1220.79321 282.78813,1221.48159 282.78813,1222.34206 C282.78813,1223.20253 283.475536,1223.89091 284.334793,1223.89091 L316.213228,1223.89091 C317.072485,1223.89091 317.75989,1223.20253 317.75989,1222.34206 C317.75989,1221.48159 316.986559,1220.79321 316.127302,1220.79321 Z" id="sertifikat_icon"></path>
        </g>
    </g>
</svg>